<?xml version="1.0" encoding="UTF-8"?>
<!DOCTYPE svg PUBLIC "-//W3C//DTD SVG 1.1//EN" "http://www.w3.org/Graphics/SVG/1.1/DTD/svg11.dtd">
<!-- Creator: CorelDRAW 2017 -->
<svg xmlns="http://www.w3.org/2000/svg" xml:space="preserve" width="1918px" height="1918px" version="1.1" style="shape-rendering:geometricPrecision; text-rendering:geometricPrecision; image-rendering:optimizeQuality; fill-rule:evenodd; clip-rule:evenodd"
viewBox="0 0 1904.51 1904.51"
 xmlns:xlink="http://www.w3.org/1999/xlink">
 <defs>
  <style type="text/css">
   <![CDATA[
    .str0 {stroke:#0083C4;stroke-width:2.35;stroke-miterlimit:22.9256}
    .fil1 {fill:#FEFEFE}
    .fil0 {fill:#0083C4}
   ]]>
  </style>
 </defs>
 <g id="Layer_x0020_1">
  <metadata id="CorelCorpID_0Corel-Layer"/>
  <rect class="fil0 str0" x="1.17" y="1.17" width="1902.16" height="1902.16"/>
  <polygon class="fil1" points="1747.05,1012.63 170.95,1012.63 170.95,914.12 1747.05,914.12 "/>
  <path class="fil1" d="M170.95 323.08l443.28 0 0 197.01 -160.08 0c-22.16,0 -41.86,14.78 -46.79,36.94l-4.92 14.78 -9.85 -22.17c-7.39,-17.24 -24.63,-29.55 -44.33,-29.55l-177.31 0 0 -197.01z"/>
  <path class="fil1" d="M1180.64 1603.67l-443.28 0 0 -197.02 160.07 0c22.17,0 41.87,-14.77 46.79,-36.94l4.93 -14.77 9.85 22.16c7.39,17.24 24.63,29.55 44.33,29.55l177.31 0 0 197.02z"/>
  <path class="fil1" d="M1254.52 323.08l443.28 0 0 197.01 -177.31 0c-19.7,0 -36.94,12.31 -44.33,29.55l-9.85 22.17 -4.93 -14.78c-4.92,-22.16 -24.62,-36.94 -46.79,-36.94l-160.07 0 0 -197.01z"/>
  <g id="_1933256940016">
   <path class="fil1" d="M1796.31 815.61l-1674.62 0c-27.09,0 -49.25,22.17 -49.25,49.26l0 197.01c0,27.09 22.16,49.25 49.25,49.25l1674.62 0c27.09,0 49.25,-22.16 49.25,-49.25l0 -197.01c0,-27.09 -22.16,-49.26 -49.25,-49.26z"/>
   <path class="fil1" d="M121.69 618.6l194.55 0 54.18 118.21c7.39,17.23 24.63,29.55 44.33,29.55 2.46,0 2.46,0 4.93,0 19.7,-2.46 36.94,-17.24 44.32,-36.94l29.56 -110.82 169.92 0c27.09,0 49.25,-22.17 49.25,-49.26l0 -295.52c0,-27.09 -22.16,-49.25 -49.25,-49.25l-541.79 0c-27.09,0 -49.25,22.16 -49.25,49.25l0 295.52c0,27.09 22.16,49.26 49.25,49.26z"/>
   <path class="fil1" d="M1229.89 1308.15l-194.55 0 -54.18 -118.21c-9.85,-19.7 -27.09,-29.55 -49.25,-29.55 -19.7,2.46 -36.94,17.23 -44.33,36.94l-29.55 110.82 -169.92 0c-27.09,0 -49.26,22.16 -49.26,49.25l0 295.52c0,27.09 22.17,49.25 49.26,49.25l541.78 0c27.09,0 49.26,-22.16 49.26,-49.25l0 -295.52c0,-27.09 -22.17,-49.25 -49.26,-49.25z"/>
   <path class="fil1" d="M1205.27 618.6l169.92 0 29.55 110.82c4.93,19.7 22.17,34.48 44.33,36.94 2.46,0 2.46,0 4.93,0 19.7,0 36.94,-12.32 44.32,-29.55l54.18 -118.21 194.55 0c27.09,0 49.26,-22.17 49.26,-49.26l0 -295.52c0,-27.09 -22.17,-49.25 -49.26,-49.25l-541.78 0c-27.09,0 -49.26,22.16 -49.26,49.25l0 295.52c0,27.09 22.17,49.26 49.26,49.26z"/>
  </g>
 </g>
</svg>
