<?xml version="1.0" encoding="UTF-8"?>
<!DOCTYPE svg PUBLIC "-//W3C//DTD SVG 1.1//EN" "http://www.w3.org/Graphics/SVG/1.1/DTD/svg11.dtd">
<!-- Creator: CorelDRAW 2017 -->
<svg xmlns="http://www.w3.org/2000/svg" xml:space="preserve" width="7759px" height="7759px" version="1.1" style="shape-rendering:geometricPrecision; text-rendering:geometricPrecision; image-rendering:optimizeQuality; fill-rule:evenodd; clip-rule:evenodd"
viewBox="0 0 7759 7759"
 xmlns:xlink="http://www.w3.org/1999/xlink">
 <defs>
  <style type="text/css">
   <![CDATA[
    .str0 {stroke:#0083C4;stroke-width:7.37;stroke-miterlimit:22.9256}
    .str1 {stroke:#FEFEFE;stroke-width:199.99;stroke-miterlimit:22.9256;stroke-dasharray:199.990000 199.990000}
    .fil2 {fill:none}
    .fil0 {fill:#0083C4}
    .fil1 {fill:#FEFEFE}
   ]]>
  </style>
 </defs>
 <g id="Layer_x0020_1">
  <metadata id="CorelCorpID_0Corel-Layer"/>
  <rect class="fil0 str0" x="3.69" y="3.69" width="7751.63" height="7751.63"/>
  <path class="fil1" d="M4552.94 4104.94l-2403.28 0c-163.11,0 -296.26,133.14 -296.26,299.57l0 1264.89c0,166.43 133.15,299.57 296.26,299.57l302.91 0 0 499.3c0,39.95 23.29,76.56 59.91,93.21 13.31,6.66 26.62,6.66 39.95,6.66 26.62,0 49.93,-9.99 69.89,-29.97l569.2 -569.2 1358.09 0c163.11,0 296.26,-133.14 296.26,-299.57l0 -1264.89c3.32,-166.43 -129.83,-299.57 -292.93,-299.57l0 0zm96.53 1564.46c0,53.26 -43.27,99.86 -96.53,99.86l-1401.36 0c-26.63,0 -53.26,9.99 -69.9,29.95l-429.39 429.4 0 -359.5c0,-56.58 -43.28,-99.85 -99.86,-99.85l-402.77 0c-53.26,0 -96.54,-46.6 -96.54,-99.86l0 -1264.89c0,-56.59 43.28,-99.86 96.54,-99.86l2399.95 0c53.26,0 96.54,43.27 96.54,99.86l0 1264.89 3.32 0 0 0zm-266.29 -1031.88c0,36.62 -29.96,66.57 -66.58,66.57l-1930.6 0c-36.62,0 -66.59,-29.95 -66.59,-66.57 0,-36.62 29.97,-66.57 66.59,-66.57l1930.6 0c36.62,0 66.58,29.95 66.58,66.57zm0 399.43c0,36.62 -29.96,66.58 -66.58,66.58l-1930.6 0c-36.62,0 -66.59,-29.96 -66.59,-66.58 0,-36.61 29.97,-66.57 66.59,-66.57l1930.6 0c36.62,0 66.58,29.96 66.58,66.57zm0 399.44c0,36.62 -29.96,66.57 -66.58,66.57l-1930.6 0c-36.62,0 -66.59,-29.95 -66.59,-66.57 0,-36.62 29.97,-66.57 66.59,-66.57l1930.6 0c36.62,0 66.58,29.95 66.58,66.57z"/>
  <path class="fil1" d="M6110.67 1929.24l-1800.98 0c-122.23,0 -222.01,99.77 -222.01,224.49l0 947.9c0,124.72 99.78,224.49 222.01,224.49l226.99 0 0 374.17c0,29.94 17.46,57.37 44.9,69.85 9.98,4.98 19.95,4.98 29.94,4.98 19.95,0 37.41,-7.48 52.37,-22.45l426.56 -426.55 1017.73 0c122.22,0 222.01,-99.77 222.01,-224.49l0 -947.9c2.49,-124.72 -97.29,-224.49 -219.52,-224.49l0 0zm72.34 1172.39c0,39.91 -32.43,74.83 -72.34,74.83l-1050.16 0c-19.95,0 -39.91,7.48 -52.38,22.44l-321.78 321.79 0 -269.4c0,-42.41 -32.43,-74.83 -74.83,-74.83l-301.83 0c-39.91,0 -72.34,-34.92 -72.34,-74.83l0 -947.9c0,-42.4 32.43,-74.83 72.34,-74.83l1798.49 0c39.91,0 72.34,32.43 72.34,74.83l0 947.9 2.49 0 0 0zm-199.55 -773.28c0,27.44 -22.46,49.88 -49.9,49.88l-1446.76 0c-27.45,0 -49.9,-22.44 -49.9,-49.88 0,-27.44 22.45,-49.89 49.9,-49.89l1446.76 0c27.44,0 49.9,22.45 49.9,49.89zm0 299.32c0,27.45 -22.46,49.9 -49.9,49.9l-1446.76 0c-27.45,0 -49.9,-22.45 -49.9,-49.9 0,-27.43 22.45,-49.88 49.9,-49.88l1446.76 0c27.44,0 49.9,22.45 49.9,49.88zm0 299.34c0,27.44 -22.46,49.89 -49.9,49.89l-1446.76 0c-27.45,0 -49.9,-22.45 -49.9,-49.89 0,-27.44 22.45,-49.89 49.9,-49.89l1446.76 0c27.44,0 49.9,22.45 49.9,49.89z"/>
  <circle class="fil2 str1" cx="3883.37" cy="3881.8" r="3513.74"/>
 </g>
 <g id="Layer_x0020_1_0">
  <metadata id="CorelCorpID_1Corel-Layer"/>
  <path class="fil1" d="M3099.03 1718.4l-1395.77 0c-94.72,0 -172.05,77.33 -172.05,173.99l0 734.62c0,96.66 77.33,173.98 172.05,173.98l175.93 0 0 289.98c0,23.2 13.53,44.46 34.79,54.13 7.73,3.87 15.47,3.87 23.2,3.87 15.46,0 29,-5.8 40.6,-17.4l330.58 -330.58 788.74 0c94.73,0 172.06,-77.32 172.06,-173.98l0 -734.62c1.93,-96.66 -75.4,-173.99 -170.13,-173.99l0 0zm56.07 908.61c0,30.93 -25.14,57.99 -56.07,57.99l-813.87 0c-15.46,0 -30.94,5.8 -40.6,17.4l-249.38 249.38 0 -208.79c0,-32.86 -25.13,-57.99 -58,-57.99l-233.92 0c-30.93,0 -56.06,-27.06 -56.06,-57.99l0 -734.62c0,-32.87 25.13,-58 56.06,-58l1393.84 0c30.93,0 56.07,25.13 56.07,58l0 734.62 1.93 0 0 0zm-154.66 -599.3c0,21.27 -17.4,38.67 -38.67,38.67l-1121.24 0c-21.27,0 -38.67,-17.4 -38.67,-38.67 0,-21.26 17.4,-38.66 38.67,-38.66l1121.24 0c21.27,0 38.67,17.4 38.67,38.66zm0 231.98c0,21.27 -17.4,38.67 -38.67,38.67l-1121.24 0c-21.27,0 -38.67,-17.4 -38.67,-38.67 0,-21.26 17.4,-38.66 38.67,-38.66l1121.24 0c21.27,0 38.67,17.4 38.67,38.66zm0 231.99c0,21.27 -17.4,38.66 -38.67,38.66l-1121.24 0c-21.27,0 -38.67,-17.39 -38.67,-38.66 0,-21.27 17.4,-38.66 38.67,-38.66l1121.24 0c21.27,0 38.67,17.39 38.67,38.66z"/>
 </g>
</svg>
