<?xml version="1.0" encoding="UTF-8"?>
<!DOCTYPE svg PUBLIC "-//W3C//DTD SVG 1.1//EN" "http://www.w3.org/Graphics/SVG/1.1/DTD/svg11.dtd">
<!-- Creator: CorelDRAW 2017 -->
<svg xmlns="http://www.w3.org/2000/svg" xml:space="preserve" width="2483px" height="2483px" version="1.1" style="shape-rendering:geometricPrecision; text-rendering:geometricPrecision; image-rendering:optimizeQuality; fill-rule:evenodd; clip-rule:evenodd"
viewBox="0 0 2483 2483"
 xmlns:xlink="http://www.w3.org/1999/xlink">
 <defs>
  <style type="text/css">
   <![CDATA[
    .str0 {stroke:#0083C4;stroke-width:2.36;stroke-miterlimit:22.9256}
    .fil1 {fill:#FEFEFE}
    .fil0 {fill:#0083C4}
   ]]>
  </style>
 </defs>
 <g id="Layer_x0020_1">
  <metadata id="CorelCorpID_0Corel-Layer"/>
  <rect class="fil0 str0" x="1.18" y="1.18" width="2480.64" height="2480.64"/>
  <path class="fil1" d="M2137.01 318.24l-1791.02 0c-121.55,0 -220.78,99.22 -220.78,223.25l0 942.65c0,124.03 99.23,223.25 220.78,223.25l225.74 0 0 372.1c0,29.77 17.36,57.05 44.65,69.46 9.92,4.96 19.84,4.96 29.77,4.96 19.84,0 37.21,-7.44 52.09,-22.33l424.19 -424.19 1012.1 0c121.55,0 220.78,-99.22 220.78,-223.25l0 -942.65c2.48,-124.03 -96.75,-223.25 -218.3,-223.25zm71.94 1165.9c0,39.69 -32.25,74.42 -71.94,74.42l-1044.35 0c-19.84,0 -39.69,7.44 -52.09,22.32l-320 320 0 -267.91c0,-42.17 -32.25,-74.41 -74.42,-74.41l-300.16 0c-39.69,0 -71.94,-34.73 -71.94,-74.42l0 -942.65c0,-42.17 32.25,-74.42 71.94,-74.42l1788.54 0c39.69,0 71.94,32.25 71.94,74.42l0 942.65 2.48 0zm-198.45 -769c0,27.29 -22.33,49.61 -49.62,49.61l-1438.76 0c-27.29,0 -49.62,-22.32 -49.62,-49.61 0,-27.29 22.33,-49.61 49.62,-49.61l1438.76 0c27.29,0 49.62,22.32 49.62,49.61zm0 297.67c0,27.29 -22.33,49.62 -49.62,49.62l-1438.76 0c-27.29,0 -49.62,-22.33 -49.62,-49.62 0,-27.28 22.33,-49.61 49.62,-49.61l1438.76 0c27.29,0 49.62,22.33 49.62,49.61zm0 297.68c0,27.29 -22.33,49.61 -49.62,49.61l-1438.76 0c-27.29,0 -49.62,-22.32 -49.62,-49.61 0,-27.29 22.33,-49.61 49.62,-49.61l1438.76 0c27.29,0 49.62,22.32 49.62,49.61z"/>
 </g>
</svg>
