<?xml version="1.0" encoding="UTF-8"?>
<!DOCTYPE svg PUBLIC "-//W3C//DTD SVG 1.1//EN" "http://www.w3.org/Graphics/SVG/1.1/DTD/svg11.dtd">
<!-- Creator: CorelDRAW 2017 -->
<svg xmlns="http://www.w3.org/2000/svg" xml:space="preserve" width="2483px" height="2483px" version="1.1" style="shape-rendering:geometricPrecision; text-rendering:geometricPrecision; image-rendering:optimizeQuality; fill-rule:evenodd; clip-rule:evenodd"
viewBox="0 0 2483 2483"
 xmlns:xlink="http://www.w3.org/1999/xlink">
 <defs>
  <style type="text/css">
   <![CDATA[
    .str0 {stroke:#0083C4;stroke-width:2.36;stroke-miterlimit:22.9256}
    .fil1 {fill:#FEFEFE}
    .fil0 {fill:#0083C4}
   ]]>
  </style>
 </defs>
 <g id="Layer_x0020_1">
  <metadata id="CorelCorpID_0Corel-Layer"/>
  <rect class="fil0 str0" x="1.18" y="1.18" width="2480.64" height="2480.64"/>
  <path class="fil1" d="M2357.79 1236.07c0,615.2 -501.09,1116.29 -1116.29,1116.29 -615.2,0 -1116.29,-501.09 -1116.29,-1116.29 0,-275.35 101.71,-538.3 285.28,-744.19l-161.24 0c-42.18,0 -74.42,-32.25 -74.42,-74.42 0,-42.17 32.24,-74.42 74.42,-74.42l347.28 0c42.18,0 74.42,32.25 74.42,74.42l0 347.29c0,42.17 -32.24,74.42 -74.42,74.42 -42.17,0 -74.41,-32.25 -74.41,-74.42l0 -176.12c-158.77,178.6 -248.07,406.82 -248.07,647.44 0,533.34 434.11,967.45 967.45,967.45 533.34,0 967.45,-434.11 967.45,-967.45 0,-533.33 -434.11,-967.45 -967.45,-967.45 -42.17,0 -74.42,-32.24 -74.42,-74.42 0,-42.17 32.25,-74.41 74.42,-74.41 615.2,0 1116.29,501.08 1116.29,1116.28zm-1116.29 -620.16c27.29,0 49.61,-22.32 49.61,-49.61l0 -148.84c0,-27.29 -22.32,-49.61 -49.61,-49.61 -27.29,0 -49.61,22.32 -49.61,49.61l0 148.84c0,27.29 22.32,49.61 49.61,49.61zm-49.61 1438.77c0,27.29 22.32,49.62 49.61,49.62 27.29,0 49.61,-22.33 49.61,-49.62l0 -148.84c0,-27.28 -22.32,-49.61 -49.61,-49.61 -27.29,0 -49.61,22.33 -49.61,49.61l0 148.84zm868.22 -769c27.29,0 49.61,-22.32 49.61,-49.61 0,-27.28 -22.32,-49.61 -49.61,-49.61l-148.84 0c-27.28,0 -49.61,22.33 -49.61,49.61 0,27.29 22.33,49.61 49.61,49.61l148.84 0zm-1637.22 -99.22c-27.29,0 -49.61,22.33 -49.61,49.61 0,27.29 22.32,49.61 49.61,49.61l148.84 0c27.28,0 49.61,-22.32 49.61,-49.61 0,-27.28 -22.33,-49.61 -49.61,-49.61l-148.84 0zm769 49.61c0,12.41 4.96,24.81 14.88,34.73l210.86 210.86c9.92,9.92 22.32,14.88 34.72,14.88 12.41,0 24.81,-4.96 34.73,-14.88 19.85,-19.85 19.85,-49.62 0,-69.46l-195.97 -195.97 0 -426.67c0,-27.29 -22.32,-49.62 -49.61,-49.62 -27.29,0 -49.61,22.33 -49.61,49.62l0 446.51z"/>
 </g>
</svg>
