<?xml version="1.0" encoding="UTF-8"?>
<!DOCTYPE svg PUBLIC "-//W3C//DTD SVG 1.1//EN" "http://www.w3.org/Graphics/SVG/1.1/DTD/svg11.dtd">
<!-- Creator: CorelDRAW 2017 -->
<svg xmlns="http://www.w3.org/2000/svg" xml:space="preserve" width="1007px" height="1007px" version="1.1" style="shape-rendering:geometricPrecision; text-rendering:geometricPrecision; image-rendering:optimizeQuality; fill-rule:evenodd; clip-rule:evenodd"
viewBox="0 0 1290.96 1290.96"
 xmlns:xlink="http://www.w3.org/1999/xlink">
 <defs>
  <style type="text/css">
   <![CDATA[
    .str2 {stroke:white;stroke-width:38.44;stroke-miterlimit:22.9256}
    .str1 {stroke:white;stroke-width:64.08;stroke-miterlimit:22.9256}
    .str0 {stroke:#0083C4;stroke-width:9.45;stroke-miterlimit:22.9256}
    .fil1 {fill:#FEFEFE}
    .fil0 {fill:#0083C4}
    .fil2 {fill:#FEFEFE}
   ]]>
  </style>
 </defs>
 <g id="Layer_x0020_1">
  <metadata id="CorelCorpID_0Corel-Layer"/>
  <rect class="fil0 str0" x="4.73" y="4.73" width="1281.51" height="1281.51"/>
  <circle class="fil1" cx="647.13" cy="259.43" r="56.07"/>
  <circle class="fil1" cx="1035.41" cy="638.1" r="56.07"/>
  <circle class="fil1" cx="645.43" cy="1020.96" r="56.07"/>
  <circle class="fil1" cx="259.29" cy="649.94" r="56.07"/>
 </g>
 <g id="Layer_x0020_1_0">
  <metadata id="CorelCorpID_1Corel-Layer"/>
  <path class="fil2 str1" d="M619.85 642.68c0,6.41 2.57,12.81 7.69,17.94l108.93 108.93c5.13,5.12 11.53,7.69 17.94,7.69 6.41,0 12.81,-2.57 17.94,-7.69 10.25,-10.25 10.25,-25.63 0,-35.88l-101.24 -101.24 0 -220.42c0,-14.1 -11.53,-25.64 -25.63,-25.64 -14.1,0 -25.63,11.54 -25.63,25.64l0 230.67 0 0z"/>
  <path class="fil2 str2" d="M1222.16 642.68c0,317.81 -258.86,576.68 -576.68,576.68 -317.81,0 -576.68,-258.87 -576.68,-576.68 0,-142.25 52.54,-278.09 147.38,-384.46l-83.3 0c-21.79,0 -38.45,-16.66 -38.45,-38.44 0,-21.79 16.66,-38.45 38.45,-38.45l179.41 0c21.79,0 38.44,16.66 38.44,38.45l0 179.41c0,21.79 -16.65,38.45 -38.44,38.45 -21.79,0 -38.44,-16.66 -38.44,-38.45l0 -90.99c-82.03,92.27 -128.16,210.17 -128.16,334.48 0,275.52 224.27,499.79 499.79,499.79 275.53,0 499.79,-224.27 499.79,-499.79 0,-275.52 -224.26,-499.79 -499.79,-499.79 -21.78,0 -38.44,-16.66 -38.44,-38.45 0,-21.79 16.66,-38.44 38.44,-38.44 317.82,0 576.68,258.86 576.68,576.68z"/>
 </g>
</svg>
